<svg width="50" height="50" viewBox="0 0 50 50" fill="none" xmlns="http://www.w3.org/2000/svg">
<g clip-path="url(#clip0_5_537)">
<path d="M38.1579 50H50V38.1579H38.1579V50Z" fill="#EA4335"/>
<path d="M50 11.8421H38.1579V38.1579H50V11.8421Z" fill="#FBBC04"/>
<path d="M38.1579 38.1579H11.8421V50H38.1579V38.1579Z" fill="#34A853"/>
<path d="M0 38.1579V46.0526C0 48.2336 1.76645 50 3.94737 50H11.8421V38.1579H0Z" fill="#188038"/>
<path d="M50 11.8421V3.94737C50 1.76645 48.2336 0 46.0526 0H38.1579V11.8421H50Z" fill="#1967D2"/>
<path d="M38.1579 0H3.94737C1.76645 0 0 1.76645 0 3.94737V38.1579H11.8421V11.8421H38.1579V0Z" fill="#4285F4"/>
<g filter="url(#filter0_d_5_537)">
<path d="M17.2401 32.2566C16.2566 31.5921 15.5757 30.6217 15.2039 29.3388L17.4868 28.398C17.6941 29.1875 18.0559 29.7993 18.5724 30.2336C19.0855 30.6678 19.7105 30.8816 20.4408 30.8816C21.1875 30.8816 21.8289 30.6546 22.3651 30.2007C22.9013 29.7467 23.1711 29.1678 23.1711 28.4671C23.1711 27.75 22.8882 27.1645 22.3224 26.7105C21.7566 26.2566 21.0461 26.0296 20.1974 26.0296H18.8783V23.7697H20.0625C20.7928 23.7697 21.4079 23.5724 21.9079 23.1776C22.4079 22.7829 22.6579 22.2434 22.6579 21.5559C22.6579 20.9441 22.4342 20.4572 21.9868 20.0921C21.5395 19.727 20.9737 19.5428 20.2862 19.5428C19.6151 19.5428 19.0822 19.7204 18.6875 20.079C18.293 20.4385 17.9965 20.8924 17.8257 21.398L15.5658 20.4572C15.8651 19.6086 16.4145 18.8586 17.2204 18.2105C18.0263 17.5625 19.0559 17.2368 20.3059 17.2368C21.2303 17.2368 22.0625 17.4145 22.7993 17.773C23.5362 18.1316 24.1151 18.6283 24.5329 19.2599C24.9507 19.8947 25.1579 20.6053 25.1579 21.3947C25.1579 22.2007 24.9638 22.8816 24.5757 23.4408C24.1875 24 23.7105 24.4276 23.1447 24.727V24.8618C23.8753 25.1631 24.5099 25.6578 24.9803 26.2928C25.4572 26.9342 25.6974 27.7007 25.6974 28.5954C25.6974 29.4901 25.4704 30.2895 25.0164 30.9901C24.5625 31.6908 23.9342 32.2434 23.1382 32.6447C22.3388 33.0461 21.4408 33.25 20.4441 33.25C19.2895 33.2533 18.2237 32.9211 17.2401 32.2566ZM31.2632 20.9276L28.7566 22.7401L27.5033 20.8388L32 17.5954H33.7237V32.8947H31.2632V20.9276Z" fill="#4285F4"/>
</g>
</g>
<defs>
<filter id="filter0_d_5_537" x="13.8289" y="16.5493" width="21.2697" height="18.7632" filterUnits="userSpaceOnUse" color-interpolation-filters="sRGB">
<feFlood flood-opacity="0" result="BackgroundImageFix"/>
<feColorMatrix in="SourceAlpha" type="matrix" values="0 0 0 0 0 0 0 0 0 0 0 0 0 0 0 0 0 0 127 0" result="hardAlpha"/>
<feOffset dy="0.6875"/>
<feGaussianBlur stdDeviation="0.6875"/>
<feComposite in2="hardAlpha" operator="out"/>
<feColorMatrix type="matrix" values="0 0 0 0 0 0 0 0 0 0 0 0 0 0 0 0 0 0 0.28 0"/>
<feBlend mode="normal" in2="BackgroundImageFix" result="effect1_dropShadow_5_537"/>
<feBlend mode="normal" in="SourceGraphic" in2="effect1_dropShadow_5_537" result="shape"/>
</filter>
<clipPath id="clip0_5_537">
<rect width="50" height="50" rx="11.5" fill="white"/>
</clipPath>
</defs>
</svg>
